# xmcd
#
# Track frame offsets:
# 150
# 13518
# 25734
# 41281
# 55235
# 70660
# 84103
# 100032
# 117121
# 131245
# 145060
# 162213
# 174402
# 189418
#
# Disc length: 2742 seconds
#
# Revision: 0
# Processed by: cddbd v1.5.1PL0 Copyright (c) Steve Scherf et al.
# Submitted via: Axialis_AX_CDPlayer 2.6
#
DISCID=a50ab40e
DTITLE=Trick Pony - R.I.D.E.
DYEAR=1900
DGENRE=
TTITLE0=Ain't Wastin' Good Whiskey
TTITLE1=What's Not To Love
TTITLE2=It's A Heartache
TTITLE3=When I Fall
TTITLE4=I Didn't
TTITLE5=The Bride
TTITLE6=Sad City
TTITLE7=Stand In The Middle Of Texas
TTITLE8=Señorita
TTITLE9=Hillbilly Rich
TTITLE10=Once A Cowboy
TTITLE11=Cry, Cry, Cry
TTITLE12=I Can Live With That
TTITLE13=Naryann's Song
EXTD=
EXTT0=
EXTT1=
EXTT2=
EXTT3=
EXTT4=
EXTT5=
EXTT6=
EXTT7=
EXTT8=
EXTT9=
EXTT10=
EXTT11=
EXTT12=
EXTT13=
PLAYORDER=
